<svg width="18" height="19" viewBox="0 0 18 19" fill="none" xmlns="http://www.w3.org/2000/svg">
<path d="M8.99758 4.62558C6.44215 4.62558 4.3798 6.80255 4.3798 9.5C4.3798 12.1974 6.44215 14.3744 8.99758 14.3744C11.553 14.3744 13.6154 12.1974 13.6154 9.5C13.6154 6.80255 11.553 4.62558 8.99758 4.62558ZM8.99758 12.668C7.345 12.668 5.99636 11.2444 5.99636 9.5C5.99636 7.75557 7.345 6.33198 8.99758 6.33198C10.6502 6.33198 11.9988 7.75557 11.9988 9.5C11.9988 11.2444 10.6502 12.668 8.99758 12.668ZM13.8045 3.28993C13.2078 3.28993 12.726 3.79852 12.726 4.42832C12.726 5.05812 13.2078 5.56672 13.8045 5.56672C14.4011 5.56672 14.8829 5.0605 14.8829 4.42832C14.8831 4.27877 14.8554 4.13066 14.8012 3.99246C14.7471 3.85426 14.6677 3.72869 14.5675 3.62294C14.4673 3.51719 14.3483 3.43335 14.2174 3.3762C14.0865 3.31906 13.9462 3.28974 13.8045 3.28993ZM17.999 9.5C17.999 8.18811 18.0103 6.88811 17.9405 5.5786C17.8707 4.05757 17.5419 2.70766 16.4883 1.59541C15.4323 0.480781 14.1557 0.136173 12.7148 0.0624986C11.472 -0.0111762 10.2404 0.000706907 8.99983 0.000706907C7.75702 0.000706907 6.52546 -0.0111762 5.28489 0.0624986C3.84395 0.136173 2.5651 0.483158 1.51141 1.59541C0.455469 2.71004 0.129004 4.05757 0.0592081 5.5786C-0.0105877 6.89049 0.000669689 8.19049 0.000669689 9.5C0.000669689 10.8095 -0.0105877 12.1119 0.0592081 13.4214C0.129004 14.9424 0.45772 16.2923 1.51141 17.4046C2.56736 18.5192 3.84395 18.8638 5.28489 18.9375C6.52771 19.0112 7.75927 18.9993 8.99983 18.9993C10.2426 18.9993 11.4742 19.0112 12.7148 18.9375C14.1557 18.8638 15.4346 18.5168 16.4883 17.4046C17.5442 16.29 17.8707 14.9424 17.9405 13.4214C18.0125 12.1119 17.999 10.8119 17.999 9.5ZM16.0177 15.104C15.8533 15.5366 15.6552 15.8598 15.3377 16.1925C15.0203 16.5276 14.7163 16.7368 14.3066 16.9103C13.1223 17.407 10.3102 17.2953 8.99758 17.2953C7.68497 17.2953 4.87062 17.407 3.68634 16.9126C3.27657 16.7391 2.97037 16.53 2.65516 16.1949C2.33771 15.8598 2.13958 15.539 1.97522 15.1064C1.50691 13.8539 1.61273 10.8856 1.61273 9.5C1.61273 8.11444 1.50691 5.14368 1.97522 3.89359C2.13958 3.46104 2.33771 3.13783 2.65516 2.8051C2.97262 2.47238 3.27657 2.26086 3.68634 2.08737C4.87062 1.59303 7.68497 1.70473 8.99758 1.70473C10.3102 1.70473 13.1245 1.59303 14.3088 2.08737C14.7186 2.26086 15.0248 2.47 15.34 2.8051C15.6575 3.1402 15.8556 3.46104 16.0199 3.89359C16.4883 5.14368 16.3824 8.11444 16.3824 9.5C16.3824 10.8856 16.4883 13.8539 16.0177 15.104Z" fill="#808080"/>
</svg>
