<svg width="22" height="15" viewBox="0 0 22 15" fill="none" xmlns="http://www.w3.org/2000/svg">
<path d="M22 7.43536C22 7.38458 22 7.32687 21.9975 7.25993C21.9951 7.07295 21.9902 6.86288 21.9853 6.63897C21.9656 5.99492 21.9312 5.35318 21.8772 4.74838C21.8036 3.91505 21.6955 3.22022 21.5482 2.69852C21.3927 2.15408 21.088 1.65755 20.6645 1.25853C20.2409 0.859521 19.7134 0.572013 19.1346 0.424746C18.4397 0.249307 17.0795 0.140812 15.1643 0.0738688C14.2533 0.0415512 13.2786 0.0207755 12.3038 0.00923347C11.9625 0.00461666 11.6458 0.0023084 11.3609 0H10.6391C10.3542 0.0023084 10.0375 0.00461666 9.69621 0.00923347C8.72143 0.0207755 7.74665 0.0415512 6.83571 0.0738688C4.92054 0.143121 3.55781 0.251616 2.8654 0.424746C2.28643 0.571651 1.7587 0.859038 1.33509 1.25811C0.911475 1.65717 0.606866 2.15391 0.451786 2.69852C0.302009 3.22022 0.196429 3.91505 0.122768 4.74838C0.06875 5.35318 0.034375 5.99492 0.0147321 6.63897C0.00736603 6.86288 0.00491068 7.07295 0.00245532 7.25993C0.00245532 7.32687 0 7.38458 0 7.43536V7.56463C0 7.61542 -3.75024e-08 7.67313 0.00245532 7.74007C0.00491068 7.92705 0.00982139 8.13712 0.0147321 8.36103C0.034375 9.00508 0.06875 9.64681 0.122768 10.2516C0.196429 11.0849 0.304464 11.7798 0.451786 12.3015C0.766071 13.4072 1.68929 14.2798 2.8654 14.5753C3.55781 14.7507 4.92054 14.8592 6.83571 14.9261C7.74665 14.9584 8.72143 14.9792 9.69621 14.9908C10.0375 14.9954 10.3542 14.9977 10.6391 15H11.3609C11.6458 14.9977 11.9625 14.9954 12.3038 14.9908C13.2786 14.9792 14.2533 14.9584 15.1643 14.9261C17.0795 14.8569 18.4422 14.7484 19.1346 14.5753C20.3107 14.2798 21.2339 13.4095 21.5482 12.3015C21.698 11.7798 21.8036 11.0849 21.8772 10.2516C21.9312 9.64681 21.9656 9.00508 21.9853 8.36103C21.9926 8.13712 21.9951 7.92705 21.9975 7.74007C21.9975 7.67313 22 7.61542 22 7.56463V7.43536ZM20.2321 7.5554C20.2321 7.60388 20.2321 7.65697 20.2297 7.7193C20.2272 7.89935 20.2223 8.09788 20.2174 8.31256C20.2002 8.92659 20.1658 9.54063 20.1143 10.1108C20.048 10.8541 19.9547 11.4635 19.8393 11.8721C19.6871 12.4054 19.2402 12.8278 18.6754 12.9686C18.1598 13.0979 16.8609 13.2018 15.0955 13.2641C14.2018 13.2964 13.2393 13.3172 12.2792 13.3287C11.9429 13.3333 11.631 13.3356 11.3511 13.3356H10.6489L9.72076 13.3287C8.76071 13.3172 7.80067 13.2964 6.90446 13.2641C5.13906 13.1994 3.83772 13.0979 3.32455 12.9686C2.75982 12.8255 2.31295 12.4054 2.16071 11.8721C2.04531 11.4635 1.95201 10.8541 1.88571 10.1108C1.83415 9.54063 1.80223 8.92659 1.78259 8.31256C1.77522 8.09788 1.77277 7.89704 1.77031 7.7193C1.77031 7.65697 1.76786 7.60157 1.76786 7.5554V7.4446C1.76786 7.39612 1.76786 7.34303 1.77031 7.2807C1.77277 7.10065 1.77768 6.90212 1.78259 6.68744C1.79978 6.07341 1.83415 5.45937 1.88571 4.8892C1.95201 4.14589 2.04531 3.53647 2.16071 3.12789C2.31295 2.59464 2.75982 2.17221 3.32455 2.03139C3.84018 1.90212 5.13906 1.79825 6.90446 1.73592C7.79821 1.7036 8.76071 1.68283 9.72076 1.67128C10.0571 1.66667 10.369 1.66436 10.6489 1.66436H11.3511L12.2792 1.67128C13.2393 1.68283 14.1993 1.7036 15.0955 1.73592C16.8609 1.80055 18.1623 1.90212 18.6754 2.03139C19.2402 2.17452 19.6871 2.59464 19.8393 3.12789C19.9547 3.53647 20.048 4.14589 20.1143 4.8892C20.1658 5.45937 20.1978 6.07341 20.2174 6.68744C20.2248 6.90212 20.2272 7.10295 20.2297 7.2807C20.2297 7.34303 20.2321 7.39843 20.2321 7.4446V7.5554ZM8.81473 10.5933L14.5112 7.47692L8.81473 4.40674V10.5933Z" fill="#808080"/>
</svg>
